<svg id="Layer_1" data-name="Layer 1" xmlns="http://www.w3.org/2000/svg" viewBox="0 0 95 95"><path d="M90.28,82.72H4.72a3,3,0,0,1-3-3v-.69a3,3,0,0,1,3-3H90.28a3,3,0,0,1,3,3v.69A3,3,0,0,1,90.28,82.72ZM4.72,77.59a1.47,1.47,0,0,0-1.47,1.47v.69a1.47,1.47,0,0,0,1.47,1.47H90.28a1.47,1.47,0,0,0,1.47-1.47v-.69a1.47,1.47,0,0,0-1.47-1.47Z"/><path d="M86.78,77.59H8.22a.75.75,0,0,1-.75-.75A39.52,39.52,0,0,1,47,37.37h1.1A39.52,39.52,0,0,1,87.53,76.84.75.75,0,0,1,86.78,77.59ZM9,76.09H86a38,38,0,0,0-38-37.22H47A38,38,0,0,0,9,76.09Z"/><path d="M17.06,64.26a.85.85,0,0,1-.31-.06.75.75,0,0,1-.37-1A33.44,33.44,0,0,1,37.91,44.6a.75.75,0,0,1,.41,1.45A32,32,0,0,0,17.74,63.82.73.73,0,0,1,17.06,64.26Z"/><path d="M28.9,34.3a.76.76,0,0,1-.68-.43A13.19,13.19,0,0,1,29,22.65c2-3.68,1-8-.55-9a.75.75,0,0,1,.8-1.27c2.41,1.52,3.4,6.65,1.07,11a11.92,11.92,0,0,0-.71,9.88.74.74,0,0,1-.37,1A.67.67,0,0,1,28.9,34.3Z"/><path d="M19.31,41.15a.73.73,0,0,1-.67-.43c-.1-.2-2.38-5-.07-9.3,1.62-3,1.89-6,.71-8a.75.75,0,0,1,1.29-.77c1.45,2.47,1.19,6-.68,9.5S20,40,20,40.07a.75.75,0,0,1-.35,1A.8.8,0,0,1,19.31,41.15Z"/><path d="M67.2,34.3a.7.7,0,0,1-.31-.07.74.74,0,0,1-.37-1,11.92,11.92,0,0,0-.71-9.88c-2.33-4.32-1.34-9.45,1.07-11a.75.75,0,0,1,.8,1.27c-1.58,1-2.53,5.31-.55,9a13.19,13.19,0,0,1,.75,11.22A.76.76,0,0,1,67.2,34.3Z"/><path d="M76.79,41.15a.8.8,0,0,1-.33-.08.76.76,0,0,1-.35-1s2-4.33.1-7.94-2.13-7-.68-9.5a.76.76,0,0,1,1-.26.75.75,0,0,1,.26,1c-1.18,2-.91,5,.71,8,2.31,4.29,0,9.1-.07,9.3A.73.73,0,0,1,76.79,41.15Z"/><path d="M47.63,38.87a.72.72,0,0,1-.4-.12c-.27-.16-6.57-4.09-6.57-8.35a4.11,4.11,0,0,1,6.84-3.08,4.12,4.12,0,0,1,2.72-1,4.18,4.18,0,0,1,3,1.29,3.89,3.89,0,0,1,1.1,2.86c-.21,4.82-6.09,8.2-6.35,8.34A.78.78,0,0,1,47.63,38.87ZM44.77,27.78a2.61,2.61,0,0,0-2.61,2.62c0,2.65,3.65,5.62,5.47,6.83,1.24-.79,5.07-3.5,5.21-6.87a2.36,2.36,0,0,0-.68-1.76,2.71,2.71,0,0,0-1.94-.82,2.59,2.59,0,0,0-2.11,1.09.74.74,0,0,1-.61.31h0a.74.74,0,0,1-.61-.31A2.59,2.59,0,0,0,44.77,27.78Z"/></svg>